<?xml version="1.0" encoding="utf-8"?>
<!-- Generator: Adobe Illustrator 19.0.0, SVG Export Plug-In . SVG Version: 6.00 Build 0)  -->
<svg version="1.1" xmlns="http://www.w3.org/2000/svg" xmlns:xlink="http://www.w3.org/1999/xlink" x="0px" y="0px"
	 viewBox="0 0 356.8 356.8" style="enable-background:new 0 0 356.8 356.8;" xml:space="preserve">
<style type="text/css">
	.st0{display:none;}
	.st1{display:inline;fill:none;stroke:#C6C6C6;stroke-width:0.1;stroke-miterlimit:10;}
	.st2{display:inline;fill:none;stroke:#C6C6C6;stroke-width:0.1;stroke-linecap:round;stroke-linejoin:round;stroke-miterlimit:10;}
	.st3{display:inline;fill:none;stroke:#C6C6C6;stroke-width:0.1004;stroke-miterlimit:10;}
	.st4{display:inline;fill:none;stroke:#C6C6C6;stroke-width:0.101;stroke-miterlimit:10;}
	.st5{display:inline;fill:none;stroke:#C6C6C6;stroke-width:7.506038e-002;stroke-miterlimit:10;}
	.st6{display:inline;fill:none;stroke:#C6C6C6;stroke-width:7.247426e-002;stroke-miterlimit:10;}
	.st7{display:inline;fill:none;stroke:#C6C6C6;stroke-width:8.176047e-002;stroke-miterlimit:10;}
	.st8{display:inline;fill:none;stroke:#C6C6C6;stroke-width:7.452770e-002;stroke-miterlimit:10;}
	.st9{display:inline;stroke:#C6C6C6;stroke-width:0.1;stroke-miterlimit:10;}
	.st10{stroke:#000000;stroke-width:0.25;stroke-miterlimit:10;}
</style>
<g id="etape_1" class="st0">
	<line class="st1" x1="127.5" y1="195.3" x2="282.7" y2="195.3"/>
	<line class="st1" x1="127.5" y1="204.8" x2="282.7" y2="204.8"/>
	<line class="st1" x1="79.5" y1="162.7" x2="282.7" y2="162.7"/>
	<line class="st1" x1="79.5" y1="151.7" x2="282.7" y2="151.7"/>
	<line class="st1" x1="79.5" y1="157.7" x2="282.7" y2="157.7"/>
	<line class="st1" x1="79.5" y1="179.9" x2="282.7" y2="179.9"/>
	<line class="st1" x1="111" y1="151.8" x2="111" y2="180.5"/>
	<line class="st1" x1="118.6" y1="162.7" x2="118.6" y2="179.9"/>
	<line class="st1" x1="134.9" y1="162.7" x2="134.9" y2="179.9"/>
	<line class="st1" x1="139.5" y1="151.7" x2="139.5" y2="179.9"/>
	<line class="st1" x1="149.2" y1="151.7" x2="149.2" y2="179.9"/>
	<line class="st1" x1="109.9" y1="151.8" x2="109.9" y2="179.8"/>
	<line class="st1" x1="93.6" y1="151.8" x2="93.6" y2="180.5"/>
	<line class="st1" x1="198.9" y1="162.7" x2="198.9" y2="179.9"/>
	<line class="st1" x1="212.9" y1="162.7" x2="212.9" y2="179.9"/>
	<path class="st1" d="M139.5,179c1.9,0.9,4,1.4,6.2,1.4c7.9,0,14.4-6.4,14.4-14.4c0-7.9-6.4-14.4-14.4-14.4c-4.8,0-9.1,2.4-11.7,6.1
		"/>
	<line class="st1" x1="174.9" y1="162.7" x2="174.9" y2="179.9"/>
	<line class="st1" x1="191.2" y1="162.7" x2="191.2" y2="179.9"/>
</g>
<g id="etape_2" class="st0">
	<line class="st1" x1="97.7" y1="162.1" x2="215.9" y2="162.1"/>
	<line class="st1" x1="97.7" y1="180.5" x2="194.4" y2="180.5"/>
	<line class="st1" x1="253.9" y1="205" x2="266" y2="205"/>
	<line class="st1" x1="184.2" y1="205" x2="205.8" y2="205"/>
	<line class="st1" x1="141.4" y1="205" x2="165.2" y2="205"/>
	<line class="st1" x1="141.4" y1="204.8" x2="266" y2="204.8"/>
	<line class="st1" x1="141.4" y1="195.5" x2="266" y2="195.5"/>
	<line class="st1" x1="253.9" y1="195.3" x2="266" y2="195.3"/>
	<line class="st1" x1="184.2" y1="195.3" x2="193.8" y2="195.3"/>
	<line class="st1" x1="141.4" y1="195.3" x2="165.2" y2="195.3"/>
	<line class="st1" x1="97.7" y1="179.9" x2="215.9" y2="179.9"/>
	<line class="st1" x1="126.8" y1="162.7" x2="126.8" y2="179.9"/>
	<line class="st1" x1="143.2" y1="151.7" x2="143.2" y2="179.9"/>
	<line class="st1" x1="171.8" y1="193.8" x2="171.8" y2="204.8"/>
	<line class="st1" x1="179.3" y1="195.5" x2="179.3" y2="206.5"/>
	<line class="st1" x1="197.9" y1="195.5" x2="197.9" y2="204.8"/>
	<line class="st1" x1="204.8" y1="195.5" x2="204.8" y2="204.8"/>
	<line class="st1" x1="211.6" y1="195.5" x2="211.6" y2="204.8"/>
	<line class="st1" x1="216.8" y1="195.5" x2="216.8" y2="204.8"/>
	<line class="st1" x1="223.4" y1="195.5" x2="223.4" y2="204.8"/>
	<line class="st1" x1="224.3" y1="195.5" x2="224.3" y2="204.8"/>
	<line class="st1" x1="212.5" y1="195.5" x2="212.5" y2="204.8"/>
	<line class="st2" x1="220.3" y1="204.8" x2="220.3" y2="195.5"/>
	<polyline class="st2" points="227.4,195.5 227.4,204.8 223.9,195.5 220.3,204.8 	"/>
	<line class="st1" x1="233.2" y1="195.5" x2="233.2" y2="204.8"/>
	<line class="st1" x1="234.1" y1="195.5" x2="234.1" y2="204.8"/>
	<line class="st1" x1="241" y1="195.5" x2="241" y2="204.8"/>
	<line class="st1" x1="248.5" y1="195.5" x2="248.5" y2="204.8"/>
	<line class="st1" x1="263.1" y1="195.5" x2="263.1" y2="204.8"/>
	<line class="st1" x1="260" y1="199.9" x2="260" y2="204.8"/>
	<line class="st1" x1="109.9" y1="151.7" x2="109.9" y2="179.9"/>
	<line class="st1" x1="110.9" y1="151.7" x2="110.9" y2="179.9"/>
	<line class="st1" x1="144.2" y1="151.7" x2="144.2" y2="179.9"/>
	<line class="st1" x1="94.7" y1="164.7" x2="94.7" y2="177.9"/>
	<line class="st1" x1="118.6" y1="170.3" x2="134.9" y2="170.3"/>
	<line class="st1" x1="139.5" y1="163.6" x2="149.2" y2="163.6"/>
	<line class="st1" x1="118.6" y1="171.2" x2="134.9" y2="171.2"/>
	<line class="st1" x1="137.5" y1="179.9" x2="118.6" y2="162.7"/>
	<line class="st1" x1="166.4" y1="180.5" x2="146.7" y2="151.7"/>
	<path class="st1" d="M129.4,170.3c0,0.7-0.2,1.3-0.6,1.8"/>
	<line class="st1" x1="211.9" y1="162.1" x2="211.9" y2="179.9"/>
	<line class="st1" x1="212.9" y1="162.1" x2="212.9" y2="179.9"/>
	<line class="st1" x1="200" y1="170" x2="200" y2="179.9"/>
	<line class="st1" x1="200" y1="162.7" x2="200" y2="170"/>
	<path class="st1" d="M143.2,176.8c0,2,1.7,3.7,3.7,3.7"/>
	<path class="st1" d="M146.9,180.5c2,0,3.7-1.7,3.7-3.7c0-2-1.7-3.7-3.7-3.7c-0.7,0-1.4,0.2-2,0.6"/>
	<line class="st1" x1="198.1" y1="157.7" x2="200.8" y2="179.9"/>
	<line class="st1" x1="144.2" y1="151.7" x2="149.4" y2="179.9"/>
	<path class="st1" d="M118.6,171.8c0,4.8,3.9,8.7,8.7,8.7s8.7-3.9,8.7-8.7c0-0.2,0-0.4,0-0.5"/>
	<path class="st1" d="M132.7,175.5c-1.5,1.6-3.5,2.5-5.8,2.5c-4.4,0-8-3.6-8-7.9s3.6-7.9,8-7.9c4.8,0,8,3.6,8,7.9c0,0.1,0,0.1,0,0.2
		"/>
	<path class="st1" d="M110.7,171.8c0-4.8-3.6-8.7-8.4-8.7c-4.8,0-8.7,3.9-8.7,8.7s3.9,8.7,8.7,8.7
		C107.1,180.5,110.7,176.6,110.7,171.8z"/>
	<path class="st1" d="M110.7,170.8c0-4.8-3.6-8.7-8.4-8.7c-4.8,0-8.7,3.9-8.7,8.7s3.9,8.7,8.7,8.7
		C107.1,179.5,110.7,175.6,110.7,170.8z"/>
	<line class="st1" x1="183.1" y1="162.7" x2="183.1" y2="179.9"/>
	<line class="st1" x1="174.9" y1="170.3" x2="191.2" y2="170.3"/>
	<line class="st1" x1="174.9" y1="171.2" x2="191.2" y2="171.2"/>
	<line class="st1" x1="194.4" y1="180.5" x2="174.4" y2="162.1"/>
	<path class="st1" d="M185.8,170.3c0,0.7-0.2,1.3-0.6,1.8"/>
	<path class="st1" d="M174.9,171.8c0,4.8,3.9,8.7,8.7,8.7s8.7-3.9,8.7-8.7c0-0.2,0-0.4,0-0.5"/>
	<path class="st1" d="M189,175.5c-1.5,1.6-3.5,2.5-5.8,2.5c-4.4,0-8-3.6-8-7.9c0-4.4,3.6-7.9,8-7.9c4.8,0,8,3.6,8,7.9
		c0,0.1,0,0.1,0,0.2"/>
	<circle class="st1" cx="159.4" cy="175.2" r="5.2"/>
	<path class="st1" d="M160.4,180.5c3.6,0,6.5-2.9,6.5-6.5s-2.9-6.5-6.5-6.5c-0.9,0-1.7,0.2-2.5,0.5"/>
	<path class="st1" d="M159.8,163.3c-1.4,0.2-2.8,0.8-3.8,2c-0.6,0.6-1.1,1.4-1.4,2.2"/>
	<path class="st1" d="M162.7,174.7c3-0.5,5.3-3.1,5.3-6.3c0-3.5-2.8-6.3-6.3-6.3"/>
	<path class="st1" d="M169.6,162.1c-1.3,3.9-2.1,8-2.1,12.3c0,2.9,0.3,5.7,0.9,8.4"/>
	<path class="st1" d="M199.9,172.5c1.2,1.7,3.2,2.8,5.4,2.8c3.6,0,6.6-2.9,6.6-6.6s-2.9-6.6-6.6-6.6c-0.9,0-1.8,0.2-2.6,0.5"/>
	<path class="st3" d="M212.9,167.4c-0.3-0.9-0.8-1.7-1.6-2.4c-2.6-2.5-6.7-2.5-9.2,0.1c-1,1.1-1.6,2.4-1.8,3.7"/>
	<circle class="st4" cx="201.5" cy="201.7" r="3.2"/>
	<circle class="st4" cx="201.1" cy="201.7" r="3.2"/>
	<line class="st1" x1="211.6" y1="204.8" x2="216.8" y2="200.2"/>
	<line class="st1" x1="263.1" y1="199.9" x2="254" y2="199.9"/>
	<circle class="st5" cx="147.1" cy="200.2" r="4.9"/>
	<ellipse class="st6" cx="147.1" cy="200.2" rx="4.5" ry="4.9"/>
	<circle class="st5" cx="259.7" cy="200.2" r="4.9"/>
	<ellipse class="st7" cx="259.7" cy="200.2" rx="5.8" ry="4.9"/>
	<ellipse class="st8" cx="160.7" cy="200.2" rx="4.8" ry="4.9"/>
	<line class="st8" x1="171.9" y1="195.5" x2="179.3" y2="206.5"/>
	<line class="st8" x1="171.8" y1="193.8" x2="179.3" y2="204.8"/>
	<line class="st1" x1="241" y1="193.8" x2="241" y2="204.8"/>
	<line class="st1" x1="248.5" y1="195.5" x2="248.5" y2="206.5"/>
	<line class="st8" x1="241.1" y1="195.5" x2="248.5" y2="206.5"/>
	<line class="st8" x1="241" y1="193.8" x2="248.5" y2="204.8"/>
	<line class="st7" x1="263" y1="196.6" x2="255" y2="204.8"/>
	<line class="st9" x1="185.6" y1="201.1" x2="191.5" y2="196.4"/>
	<line class="st9" x1="185.6" y1="203.6" x2="191.5" y2="199"/>
	<circle class="st1" cx="188.9" cy="198.8" r="3.5"/>
</g>
<g id="logo">
	<g>
		<g>
			<g>
				<path class="st10" d="M110,151.8h0.8v28H110v-4.6h-0.1c-1.5,3.3-4.4,5.1-7.7,5.1c-5,0-8.5-3.8-8.5-9s3.6-9.1,8.5-9.1
					c3.2,0,6.2,1.8,7.7,5.1h0.1V151.8z M102.2,179.6c4.5,0,7.8-3.8,7.8-8.3c0-4.6-3.3-8.3-7.8-8.3c-4.7,0-7.7,3.9-7.7,8.4
					C94.5,175.8,97.5,179.6,102.2,179.6z"/>
				<path class="st10" d="M119.6,171.1c0,4.1,2.4,8.5,7.7,8.5c2.6,0,4.7-1.1,6.3-3.1l0.6,0.5c-1.7,2.1-3.9,3.3-6.8,3.3
					c-5,0-8.5-3.8-8.5-9.2c0-5.2,3.6-8.8,8.1-8.8c5.3,0,7.9,4.1,7.9,8.1v0.7H119.6z M126.8,163c-5.1,0-7.2,4.9-7.2,7.4H134
					C133.8,166,131,163,126.8,163z"/>
				<path class="st10" d="M147.1,180.3c-2.7,0-3.7-1.7-3.7-4v-12.8h-3.7v-0.7h3.7v-5h0.9v5h5v0.7h-5v12.8c0,2.3,1.3,3.3,3.1,3.3
					c0.6,0,1.3-0.1,1.9-0.3l0.1,0.6C148.6,180.1,147.8,180.3,147.1,180.3z"/>
				<path class="st10" d="M167.7,179.8H167c-0.1-1-0.3-3.1-0.3-4.1h-0.1c-1,3.1-3.7,4.6-6.4,4.6c-2.8,0-5.7-1.5-5.7-4.9
					c0-4.9,5.7-5.6,9.3-5.6h3v-1.4c0-3.8-2.2-5.5-5.5-5.5c-2,0-3.8,0.8-5.2,2l-0.4-0.6c1.6-1.4,3.7-2.1,5.6-2.1c3.9,0,6.3,2,6.3,6.2
					v7.5C167.4,177.3,167.6,178.9,167.7,179.8z M166.6,170.5H164c-3.8,0-8.8,0.6-8.8,4.9c0,3.1,2.8,4.2,4.9,4.2
					c5.1,0,6.5-4.1,6.5-7.5V170.5z"/>
				<path class="st10" d="M175.9,171.1c0,4.1,2.4,8.5,7.7,8.5c2.6,0,4.7-1.1,6.3-3.1l0.6,0.5c-1.7,2.1-3.9,3.3-6.8,3.3
					c-5,0-8.5-3.8-8.5-9.2c0-5.2,3.6-8.8,8.1-8.8c5.3,0,7.9,4.1,7.9,8.1v0.7H175.9z M183.1,163c-5.1,0-7.2,4.9-7.2,7.4h14.4
					C190.2,166,187.3,163,183.1,163z"/>
				<path class="st10" d="M206.7,162.3c4.7,0,6.1,3.7,6.1,7.3v10.3H212v-10.2c0-2.8-1-6.6-5.3-6.6c-3.7,0-6.8,3.1-6.8,8.3v8.5h-0.8
					v-12.7c0-1.1-0.1-3.3-0.2-4.3h0.8c0.1,1,0.1,3.2,0.1,4.5h0.1C201,164.1,203.7,162.3,206.7,162.3z"/>
			</g>
		</g>
		<g>
			<path d="M150.5,203.3c-0.6,0.9-1.8,1.7-3.4,1.7c-2.8,0-4.8-2-4.8-4.8s2.1-4.8,4.8-4.8c1.4,0,2.6,0.6,3.3,1.5l-0.8,0.6
				c-0.4-0.6-1.3-1.2-2.5-1.2c-2.4,0-3.8,1.9-3.8,4c0,2.1,1.5,4,3.8,4c1.1,0,2.1-0.4,2.7-1.4L150.5,203.3z"/>
			<path d="M160.7,205c-2.7,0-4.8-2-4.8-4.8s2.1-4.8,4.8-4.8c2.7,0,4.8,2,4.8,4.8S163.4,205,160.7,205z M160.7,196.1
				c-2.4,0-3.8,1.9-3.8,4c0,2.1,1.4,4,3.8,4c2.4,0,3.8-1.9,3.8-4C164.5,198,163,196.1,160.7,196.1z"/>
			<path d="M178.3,203.4L178.3,203.4l0-7.8h0.9v9.2h-1.2l-5.4-7.9h0v7.9h-0.9v-9.2h1.2L178.3,203.4z"/>
			<path d="M190.6,197c-0.4-0.6-1-0.9-1.9-0.9c-0.9,0-2,0.5-2,1.7c0,1.2,1,1.5,2,1.8c1.3,0.4,2.7,0.8,2.7,2.7c0,1.8-1.5,2.7-3,2.7
				c-1.1,0-2.2-0.5-2.9-1.4l0.8-0.6c0.4,0.7,1.1,1.2,2.1,1.2c0.9,0,2-0.6,2-1.8c0-1.3-1.1-1.6-2.2-2c-1.2-0.4-2.5-0.9-2.5-2.6
				c0-1.8,1.6-2.5,2.9-2.5c1.2,0,2.2,0.5,2.6,1.1L190.6,197z"/>
			<path d="M197.9,201.3v-5.8h0.9v5.7c0,1.5,0.6,2.9,2.5,2.9s2.5-1.5,2.5-2.9v-5.7h0.9v5.8c0,1.5-0.7,3.7-3.4,3.7
				C198.6,205,197.9,202.9,197.9,201.3z"/>
			<path d="M212.5,203.9h4.3v0.8h-5.2v-9.2h0.9V203.9z"/>
			<path d="M224.3,204.8h-0.9v-8.4h-3.1v-0.8h7.1v0.8h-3.1V204.8z"/>
			<path d="M234.1,204.8h-0.9v-9.2h0.9V204.8z"/>
			<path d="M247.5,203.4L247.5,203.4l0-7.8h0.9v9.2h-1.2l-5.4-7.9h0v7.9H241v-9.2h1.2L247.5,203.4z"/>
			<path d="M262.3,197.2c-0.6-0.7-1.5-1.1-2.7-1.1c-2.4,0-3.8,1.9-3.8,4c0,2.1,1.5,4,3.8,4c1,0,2-0.2,2.5-0.6v-2.8H260v-0.8h3.1v4.1
				c-1,0.6-2.2,0.9-3.4,0.9c-2.8,0-4.8-2-4.8-4.8s2.1-4.8,4.8-4.8c1.5,0,2.5,0.5,3.3,1.2L262.3,197.2z"/>
		</g>
	</g>
</g>
</svg>
