<?xml version="1.0" standalone="no"?>
<!DOCTYPE svg PUBLIC "-//W3C//DTD SVG 20010904//EN"
 "http://www.w3.org/TR/2001/REC-SVG-20010904/DTD/svg10.dtd">
<svg version="1.0" xmlns="http://www.w3.org/2000/svg"
 width="1024.000000pt" height="1024.000000pt" viewBox="0 0 1024.000000 1024.000000"
 preserveAspectRatio="xMidYMid meet">
<metadata>
Created by potrace 1.11, written by Peter Selinger 2001-2013
</metadata>
<g transform="translate(0.000000,1024.000000) scale(0.100000,-0.100000)"
fill="#000000" stroke="none">
<path d="M9805 10084 c-33 -7 -123 -35 -200 -62 -77 -28 -255 -87 -395 -132
-140 -45 -286 -92 -325 -105 -38 -13 -191 -62 -340 -110 -460 -147 -579 -186
-620 -200 -22 -7 -166 -54 -320 -103 -233 -75 -654 -212 -1049 -340 -45 -14
-83 -26 -86 -27 -9 -2 -425 -136 -465 -150 -22 -8 -175 -57 -340 -111 -165
-53 -345 -111 -400 -129 -136 -45 -399 -129 -405 -130 -3 0 -61 -19 -130 -42
-69 -23 -258 -84 -420 -136 -162 -53 -380 -123 -485 -157 -104 -34 -194 -63
-200 -64 -5 -1 -111 -35 -235 -75 -199 -64 -534 -172 -950 -306 -74 -24 -216
-69 -315 -100 -99 -31 -205 -65 -235 -76 -55 -18 -586 -187 -945 -300 -322
-101 -427 -143 -535 -214 -87 -57 -134 -105 -167 -173 -54 -110 -32 -277 58
-449 51 -95 53 -99 554 -853 615 -928 896 -1354 1098 -1669 50 -78 97 -148
102 -155 6 -6 15 -20 20 -29 10 -16 43 -68 234 -362 219 -338 383 -591 406
-629 11 -18 53 -84 93 -147 248 -386 587 -920 875 -1379 310 -493 314 -499
434 -622 225 -232 408 -179 652 187 42 62 131 205 131 210 0 2 34 61 77 132
42 70 111 187 153 258 42 72 157 264 254 429 98 164 186 312 195 330 10 17 45
76 78 131 33 55 173 289 310 520 251 422 356 597 374 625 5 8 169 283 364 610
195 327 358 600 362 605 4 6 19 30 32 55 13 25 28 51 34 57 5 7 44 72 88 145
43 73 81 138 86 144 4 5 13 19 19 30 43 79 220 370 227 372 4 2 7 8 7 13 0 6
15 33 33 62 19 29 45 72 59 97 14 25 339 567 723 1205 814 1354 1142 1899
1164 1937 9 15 66 109 126 209 61 100 117 194 125 208 24 41 82 137 252 419
l160 262 -13 38 c-31 96 -107 195 -176 227 -53 25 -139 33 -208 19z m-125
-450 c0 -3 -120 -205 -267 -449 -148 -245 -272 -453 -278 -462 -7 -14 -728
-1214 -970 -1616 -11 -19 -45 -75 -75 -126 -30 -51 -65 -109 -78 -129 -12 -20
-31 -53 -42 -72 -11 -19 -38 -64 -60 -99 -22 -34 -40 -64 -40 -65 0 -2 -70
-120 -156 -262 -86 -142 -164 -272 -174 -289 -9 -16 -31 -52 -48 -80 -17 -27
-57 -94 -89 -148 -32 -54 -66 -111 -75 -125 -10 -15 -21 -34 -25 -42 -4 -8
-40 -68 -80 -133 -40 -65 -73 -120 -73 -122 0 -1 -50 -85 -111 -186 -62 -101
-120 -197 -129 -214 -9 -16 -143 -239 -297 -495 -154 -256 -285 -474 -291
-485 -95 -158 -212 -353 -353 -590 -95 -159 -181 -301 -190 -315 -9 -14 -66
-107 -125 -207 -60 -100 -137 -229 -171 -285 -34 -57 -69 -114 -77 -128 -8
-14 -229 -383 -491 -820 -263 -437 -488 -813 -501 -835 -39 -66 -42 -70 -47
-65 -4 5 -136 209 -324 502 -40 62 -77 120 -83 128 -58 88 -493 758 -505 778
-5 10 -26 42 -46 72 -20 30 -56 87 -81 125 -153 238 -316 488 -349 538 -22 32
-39 60 -39 63 0 3 -5 10 -11 17 -6 7 -47 68 -91 137 -125 195 -205 317 -313
483 -55 84 -119 182 -141 218 -23 35 -59 90 -80 123 -22 32 -43 66 -49 74 -5
9 -55 86 -111 171 -153 238 -222 344 -352 546 -25 39 -85 130 -134 204 -48 74
-88 138 -88 143 0 4 -4 8 -10 8 -5 0 -10 4 -10 9 0 6 -48 83 -107 173 -59 90
-112 171 -118 181 -13 22 -115 180 -215 332 -44 66 -102 156 -130 200 -28 44
-107 166 -175 270 -204 313 -257 397 -253 400 2 1 35 12 73 24 73 23 577 186
915 296 107 35 281 91 385 125 105 34 278 90 385 125 107 35 350 113 540 175
190 61 356 115 370 120 32 11 503 164 510 165 3 0 43 13 90 29 47 15 252 81
455 147 204 66 388 126 410 134 62 21 399 129 405 130 3 0 138 44 300 97 518
169 835 272 840 273 3 1 50 16 105 34 55 18 253 82 440 142 187 61 414 134
505 164 467 151 806 261 905 292 61 20 162 52 225 73 216 71 853 277 874 282
5 2 93 31 195 65 197 65 201 66 201 57z"/>
</g>
</svg>
